<mxfile host="app.diagrams.net" modified="2020-12-11T20:03:27.371Z" agent="5.0 (Windows NT 10.0; Win64; x64) AppleWebKit/537.36 (KHTML, like Gecko) Chrome/87.0.4280.88 Safari/537.36" etag="VRtJ4ObyJdtgjr2ITDtp" version="13.11.0" type="github">
  <diagram id="uq0m_pvIZ-YyTsmyAaB8" name="Page-1">
    <mxGraphModel dx="868" dy="450" grid="1" gridSize="10" guides="1" tooltips="1" connect="1" arrows="1" fold="1" page="1" pageScale="1" pageWidth="1169" pageHeight="827" math="1" shadow="0">
      <root>
        <mxCell id="0" />
        <mxCell id="1" parent="0" />
        <mxCell id="NynmtdJ3YNJhnkTHBj0V-8" value="" style="endArrow=classic;html=1;fillColor=#f5f5f5;opacity=70;" edge="1" parent="1">
          <mxGeometry width="50" height="50" relative="1" as="geometry">
            <mxPoint x="370" y="190" as="sourcePoint" />
            <mxPoint x="430" y="130" as="targetPoint" />
          </mxGeometry>
        </mxCell>
        <mxCell id="NynmtdJ3YNJhnkTHBj0V-1" value="" style="shape=cube;whiteSpace=wrap;html=1;boundedLbl=1;backgroundOutline=1;darkOpacity=0.05;darkOpacity2=0.1;size=20;flipH=1;opacity=50;" vertex="1" parent="1">
          <mxGeometry x="300" y="140" width="120" height="110" as="geometry" />
        </mxCell>
        <mxCell id="NynmtdJ3YNJhnkTHBj0V-3" value="" style="endArrow=classic;html=1;" edge="1" parent="1">
          <mxGeometry width="50" height="50" relative="1" as="geometry">
            <mxPoint x="220" y="200" as="sourcePoint" />
            <mxPoint x="270" y="200" as="targetPoint" />
          </mxGeometry>
        </mxCell>
        <mxCell id="NynmtdJ3YNJhnkTHBj0V-4" value="" style="endArrow=classic;html=1;" edge="1" parent="1">
          <mxGeometry width="50" height="50" relative="1" as="geometry">
            <mxPoint x="430" y="194.5" as="sourcePoint" />
            <mxPoint x="480" y="194.5" as="targetPoint" />
          </mxGeometry>
        </mxCell>
        <mxCell id="NynmtdJ3YNJhnkTHBj0V-5" value="" style="endArrow=classic;html=1;" edge="1" parent="1">
          <mxGeometry width="50" height="50" relative="1" as="geometry">
            <mxPoint x="361" y="329" as="sourcePoint" />
            <mxPoint x="361" y="289" as="targetPoint" />
          </mxGeometry>
        </mxCell>
        <mxCell id="NynmtdJ3YNJhnkTHBj0V-6" value="" style="endArrow=classic;html=1;" edge="1" parent="1">
          <mxGeometry width="50" height="50" relative="1" as="geometry">
            <mxPoint x="359" y="130" as="sourcePoint" />
            <mxPoint x="359" y="90" as="targetPoint" />
          </mxGeometry>
        </mxCell>
        <mxCell id="NynmtdJ3YNJhnkTHBj0V-7" value="" style="endArrow=classic;html=1;" edge="1" parent="1">
          <mxGeometry width="50" height="50" relative="1" as="geometry">
            <mxPoint x="270" y="280" as="sourcePoint" />
            <mxPoint x="330" y="220" as="targetPoint" />
          </mxGeometry>
        </mxCell>
        <mxCell id="NynmtdJ3YNJhnkTHBj0V-9" value="" style="endArrow=none;dashed=1;html=1;dashPattern=1 3;strokeWidth=2;opacity=70;exitX=0;exitY=0;exitDx=100;exitDy=0;exitPerimeter=0;startSize=6;editable=1;" edge="1" parent="1" source="NynmtdJ3YNJhnkTHBj0V-1">
          <mxGeometry width="50" height="50" relative="1" as="geometry">
            <mxPoint x="420" y="260" as="sourcePoint" />
            <mxPoint x="320" y="230" as="targetPoint" />
          </mxGeometry>
        </mxCell>
        <mxCell id="NynmtdJ3YNJhnkTHBj0V-10" value="" style="endArrow=none;dashed=1;html=1;dashPattern=1 3;strokeWidth=2;opacity=70;exitX=0;exitY=0;exitDx=0;exitDy=90;exitPerimeter=0;startSize=6;editable=1;" edge="1" parent="1" source="NynmtdJ3YNJhnkTHBj0V-1">
          <mxGeometry width="50" height="50" relative="1" as="geometry">
            <mxPoint x="450" y="270" as="sourcePoint" />
            <mxPoint x="320" y="230" as="targetPoint" />
          </mxGeometry>
        </mxCell>
        <mxCell id="NynmtdJ3YNJhnkTHBj0V-11" value="" style="endArrow=classic;html=1;strokeColor=#000000;" edge="1" parent="1">
          <mxGeometry width="50" height="50" relative="1" as="geometry">
            <mxPoint x="90" y="330" as="sourcePoint" />
            <mxPoint x="140" y="280" as="targetPoint" />
          </mxGeometry>
        </mxCell>
        <mxCell id="NynmtdJ3YNJhnkTHBj0V-12" value="" style="endArrow=classic;html=1;strokeColor=#000000;" edge="1" parent="1">
          <mxGeometry width="50" height="50" relative="1" as="geometry">
            <mxPoint x="90" y="330" as="sourcePoint" />
            <mxPoint x="170" y="330" as="targetPoint" />
          </mxGeometry>
        </mxCell>
        <mxCell id="NynmtdJ3YNJhnkTHBj0V-13" value="" style="endArrow=classic;html=1;strokeColor=#000000;" edge="1" parent="1">
          <mxGeometry width="50" height="50" relative="1" as="geometry">
            <mxPoint x="90" y="330" as="sourcePoint" />
            <mxPoint x="90" y="260" as="targetPoint" />
          </mxGeometry>
        </mxCell>
        <mxCell id="NynmtdJ3YNJhnkTHBj0V-14" value="x" style="text;html=1;align=center;verticalAlign=middle;resizable=0;points=[];autosize=1;" vertex="1" parent="1">
          <mxGeometry x="170" y="320" width="20" height="20" as="geometry" />
        </mxCell>
        <mxCell id="NynmtdJ3YNJhnkTHBj0V-15" value="y" style="text;html=1;align=center;verticalAlign=middle;resizable=0;points=[];autosize=1;" vertex="1" parent="1">
          <mxGeometry x="140" y="270" width="20" height="20" as="geometry" />
        </mxCell>
        <mxCell id="NynmtdJ3YNJhnkTHBj0V-16" value="z" style="text;html=1;align=center;verticalAlign=middle;resizable=0;points=[];autosize=1;" vertex="1" parent="1">
          <mxGeometry x="80" y="240" width="20" height="20" as="geometry" />
        </mxCell>
        <mxCell id="NynmtdJ3YNJhnkTHBj0V-17" value="&lt;span style=&quot;font-family: &amp;#34;courier new&amp;#34; , &amp;#34;courier&amp;#34; , monospace ; font-size: 13px ; background-color: rgb(255 , 255 , 255)&quot;&gt;$$u_x(x)$$&lt;/span&gt;" style="text;whiteSpace=wrap;html=1;" vertex="1" parent="1">
          <mxGeometry x="230" y="160" width="40" height="50" as="geometry" />
        </mxCell>
        <mxCell id="NynmtdJ3YNJhnkTHBj0V-18" value="&lt;span style=&quot;font-family: &amp;#34;courier new&amp;#34; , &amp;#34;courier&amp;#34; , monospace ; font-size: 13px ; background-color: rgb(255 , 255 , 255)&quot;&gt;$$u_x(x+\Delta{x})$$&lt;/span&gt;" style="text;whiteSpace=wrap;html=1;" vertex="1" parent="1">
          <mxGeometry x="430" y="150" width="70" height="50" as="geometry" />
        </mxCell>
        <mxCell id="NynmtdJ3YNJhnkTHBj0V-19" value="&lt;span style=&quot;font-family: &amp;#34;courier new&amp;#34; , &amp;#34;courier&amp;#34; , monospace ; font-size: 13px ; background-color: rgb(255 , 255 , 255)&quot;&gt;$$u_z(z+\Delta{z})$$&lt;/span&gt;" style="text;whiteSpace=wrap;html=1;" vertex="1" parent="1">
          <mxGeometry x="370" y="60" width="70" height="50" as="geometry" />
        </mxCell>
        <mxCell id="NynmtdJ3YNJhnkTHBj0V-20" value="&lt;span style=&quot;font-family: &amp;#34;courier new&amp;#34; , &amp;#34;courier&amp;#34; , monospace ; font-size: 13px ; background-color: rgb(255 , 255 , 255)&quot;&gt;$$u_z(z)$$&lt;/span&gt;" style="text;whiteSpace=wrap;html=1;" vertex="1" parent="1">
          <mxGeometry x="370" y="290" width="70" height="50" as="geometry" />
        </mxCell>
        <mxCell id="NynmtdJ3YNJhnkTHBj0V-21" value="&lt;span style=&quot;font-family: &amp;#34;courier new&amp;#34; , &amp;#34;courier&amp;#34; , monospace ; font-size: 13px ; background-color: rgb(255 , 255 , 255)&quot;&gt;$$u_y(y)$$&lt;/span&gt;" style="text;whiteSpace=wrap;html=1;" vertex="1" parent="1">
          <mxGeometry x="230" y="260" width="40" height="50" as="geometry" />
        </mxCell>
        <mxCell id="NynmtdJ3YNJhnkTHBj0V-22" value="&lt;span style=&quot;font-family: &amp;#34;courier new&amp;#34; , &amp;#34;courier&amp;#34; , monospace ; font-size: 13px ; background-color: rgb(255 , 255 , 255)&quot;&gt;$$u_y(y+\Delta{y})$$&lt;/span&gt;" style="text;whiteSpace=wrap;html=1;" vertex="1" parent="1">
          <mxGeometry x="440" y="90" width="70" height="50" as="geometry" />
        </mxCell>
        <mxCell id="NynmtdJ3YNJhnkTHBj0V-23" value="" style="endArrow=ERone;html=1;strokeColor=#b85450;fillColor=#f8cecc;startArrow=ERone;startFill=0;endFill=0;" edge="1" parent="1">
          <mxGeometry width="50" height="50" relative="1" as="geometry">
            <mxPoint x="300" y="265" as="sourcePoint" />
            <mxPoint x="400" y="265" as="targetPoint" />
            <Array as="points">
              <mxPoint x="350" y="265" />
            </Array>
          </mxGeometry>
        </mxCell>
        <mxCell id="NynmtdJ3YNJhnkTHBj0V-24" value="$$ \Delta{x}$$" style="edgeLabel;html=1;align=center;verticalAlign=middle;resizable=0;points=[];" vertex="1" connectable="0" parent="NynmtdJ3YNJhnkTHBj0V-23">
          <mxGeometry x="-0.04" y="-1" relative="1" as="geometry">
            <mxPoint y="2" as="offset" />
          </mxGeometry>
        </mxCell>
        <mxCell id="NynmtdJ3YNJhnkTHBj0V-27" value="" style="endArrow=ERone;html=1;strokeColor=#b85450;fillColor=#f8cecc;startArrow=ERone;startFill=0;endFill=0;" edge="1" parent="1">
          <mxGeometry width="50" height="50" relative="1" as="geometry">
            <mxPoint x="410" y="270" as="sourcePoint" />
            <mxPoint x="450" y="230" as="targetPoint" />
          </mxGeometry>
        </mxCell>
        <mxCell id="NynmtdJ3YNJhnkTHBj0V-28" value="$$ \Delta{y} $$" style="edgeLabel;html=1;align=center;verticalAlign=middle;resizable=0;points=[];" vertex="1" connectable="0" parent="NynmtdJ3YNJhnkTHBj0V-27">
          <mxGeometry x="0.0333" y="-1" relative="1" as="geometry">
            <mxPoint as="offset" />
          </mxGeometry>
        </mxCell>
        <mxCell id="NynmtdJ3YNJhnkTHBj0V-29" value="" style="endArrow=ERone;html=1;strokeColor=#b85450;fillColor=#f8cecc;startArrow=ERone;startFill=0;endFill=0;" edge="1" parent="1">
          <mxGeometry width="50" height="50" relative="1" as="geometry">
            <mxPoint x="290" y="250" as="sourcePoint" />
            <mxPoint x="290" y="160" as="targetPoint" />
          </mxGeometry>
        </mxCell>
        <mxCell id="NynmtdJ3YNJhnkTHBj0V-30" value="$$ \Delta{z} $$" style="edgeLabel;html=1;align=center;verticalAlign=middle;resizable=0;points=[];" vertex="1" connectable="0" parent="NynmtdJ3YNJhnkTHBj0V-29">
          <mxGeometry x="-0.0222" y="1" relative="1" as="geometry">
            <mxPoint as="offset" />
          </mxGeometry>
        </mxCell>
      </root>
    </mxGraphModel>
  </diagram>
</mxfile>
